<?xml version="1.0" encoding="UTF-8"?>
<svg id="Layer_1" data-name="Layer 1" xmlns="http://www.w3.org/2000/svg" viewBox="0 0 4300 1500">
  <defs>
    <style>
      .cls-1 {
        fill: #f9fafb;
      }
    </style>
  </defs>
  <g>
    <path class="cls-1" d="m1006.06,1050.48c-.47,4.29,0,0,0,0-15.25-1.7-28.82-5.98-26.41-32.17,30.56-332.21-22.55-460.47-142.71-763.34-9.47-23.87,1.61-32.57,15.96-38.42-1.54-3.75,0,0,0,0,14.36-5.85,25.74-8.66,35.07,16.36,118.44,317.54,178.2,443.79,147.1,793.17-2.46,27.55-13.75,26.1-29,24.4h-.02Z"/>
    <path class="cls-1" d="m982.57,1062.56c-2.41,3.57,0,0,0,0-12.68-8.64-22.71-18.75-8.33-40.79,182.22-279.43,195.19-417.65,230.45-741.59,2.77-25.54,16.63-28.06,32.06-26.52.4-4.04,0,0,0,0,15.43,1.54,26.81,4.38,23.37,30.85-43.62,336.09-49.76,475.63-240.49,770.01-15.03,23.2-24.36,16.66-37.04,8.01l-.02.02Z"/>
    <path class="cls-1" d="m974.22,1048.2c-3.91,1.83,0,0,0,0-6.5-13.91-9.96-27.71,13.64-39.34,299.3-147.35,380.97-259.6,576.58-520.21,15.43-20.54,28.62-15.65,41.1-6.45,2.41-3.28,0,0,0,0,12.48,9.2,20.83,17.44,4.35,38.47-209.01,266.79-285.48,383.67-599.74,539.52-24.76,12.28-29.45,1.9-35.94-11.99Z"/>
    <path class="cls-1" d="m991.33,1050.52c1,4.2,0,0,0,0-14.94,3.55-29.16,4.13-35.74-21.34-83.59-322.96-176.95-425.71-392.49-670.08-16.99-19.27-9.51-31.19,2.01-41.55-2.72-3.01,0,0,0,0,11.52-10.36,21.3-16.86,38.53,3.53,218.86,258.76,317.81,357.35,406.71,696.67,7.01,26.75-4.11,29.22-19.04,32.77h.02Z"/>
    <path class="cls-1" d="m997.8,1037.93c2.84,3.24,0,0,0,0-11.59,10.07-23.93,17.17-41.57-2.34-223.75-247.46-354.06-295.24-658.32-411.91-23.98-9.2-22.88-23.24-17.46-37.75-3.82-1.41,0,0,0,0,5.43-14.51,11.05-24.8,35.79-14.73,313.86,127.88,447.23,169.39,683.23,428.88,18.6,20.45,9.89,27.8-1.7,37.86h.02Z"/>
    <circle class="cls-1" cx="997.84" cy="1028.36" r="51.06"/>
    <path class="cls-1" d="m1915.65,1028.98l-24.65-91.92c-4.47-16.68-21.61-26.59-38.27-22.1l-793.29,212.55c-6.44,1.72-12.25,5.43-16.18,10.81-8.34,11.42-25.7,19.28-45.77,19.28s-37.42-7.86-45.77-19.28c-3.93-5.38-9.74-9.09-16.18-10.81l-793.29-212.55c-16.66-4.49-33.8,5.43-38.27,22.1l-24.65,91.92c-4.47,16.68,5.45,33.82,22.1,38.29l803.14,215.19c12.35,3.31,25.08,4.98,37.86,4.98h110.09c12.78,0,25.51-1.68,37.86-4.98l803.14-215.19c16.66-4.47,26.57-21.61,22.1-38.29Z"/>
  </g>
  <g>
    <path class="cls-1" d="m2259.85,913.48c6.93,1.3,17.98,2.6,33.15,3.9,15.16,1.3,33.15,1.95,53.95,1.95h24.7c22.53,0,40.3-.65,53.3-1.95s24.7-4.22,35.1-8.77c10.4-4.55,17.98-10.5,22.75-17.88,4.76-7.36,7.58-16.46,8.45-27.3h48.1c0,40.3-16.15,66.41-48.42,78.33-32.29,11.92-74,17.88-125.12,17.88-55.9,0-97.29-2.5-124.15-7.47-26.87-4.98-48.86-18.41-65.97-40.3-17.12-21.88-25.68-58.18-25.68-108.88,0-62.83,12-104.98,36.01-126.43,24.01-21.45,67.59-32.17,130.76-32.17h31.14c48.88,0,85.76,2.72,110.64,8.16,24.87,5.44,44.56,18.82,59.05,40.14,14.49,21.32,21.74,55.25,21.74,101.8v15.66h-343.85c0,29.9,4.11,53.2,12.35,69.88,8.23,16.69,25.56,27.85,52,33.48Zm105.95-228.8h-35.75c-25.14,0-47.45,1.42-66.95,4.26-19.5,2.84-34.12,8.41-43.88,16.71s-16.15,17.79-19.17,28.49c-3.04,10.69-4.55,23.02-4.55,37h295.75c0-13.53-1.3-25.53-3.9-36.01s-7.8-19.32-15.6-26.53c-7.8-7.2-20.05-12.99-36.73-17.36-16.69-4.37-39.76-6.55-69.22-6.55Z"/>
    <path class="cls-1" d="m3022.29,955.07h-45.5v-46.8c-9.1,21.67-23.73,35.75-43.88,42.25s-45.4,9.75-75.73,9.75h-42.25c-70.64,0-119.6-8.79-146.9-26.38s-40.95-60.03-40.95-127.34c0-63.4,11.38-106.06,34.12-127.99s65.75-32.9,129.03-32.9h35.75c35.1,0,59.25.61,72.47,1.81,13.21,1.21,24.8,3.72,34.78,7.54,9.96,3.82,18.41,9.14,25.35,15.97,6.93,6.83,13,14.86,18.2,24.09v-177.45h45.5v437.45Zm-196.62-35.1c58.19,0,97.92-6.41,119.2-19.23,21.28-12.82,31.92-45.08,31.92-96.8,0-35.63-4.46-62.13-13.36-79.51-8.91-17.39-24.21-27.71-45.93-30.97-21.71-3.25-40.72-5.31-57-6.19-16.29-.87-32.03-1.31-47.23-1.31-55.15,0-91.84,6.52-110.08,19.56-18.24,13.04-27.36,47.15-27.36,102.33,0,39.55,5.97,67.79,17.92,84.73,11.94,16.95,36.58,25.42,73.94,25.42l57.97,1.95Z"/>
    <path class="cls-1" d="m3171.78,574.82h-45.5v-57.2h45.5v57.2Zm0,380.25h-45.5v-305.5h45.5v305.5Z"/>
    <path class="cls-1" d="m3464.28,645.67c52,0,91,2.6,117,7.8,26,5.2,46.9,18.42,62.72,39.65,15.81,21.24,23.73,55.69,23.73,103.35,0,72.37-13.87,117.65-41.6,135.85-27.74,18.2-81.9,27.3-162.5,27.3-71.5,0-122.2-8.88-152.1-26.65-29.9-17.76-44.85-60.23-44.85-127.4,0-47.66,6.93-84.17,20.8-109.53,13.86-25.35,35.53-39.86,65-43.55,29.46-3.68,50.91-5.74,64.35-6.17,13.43-.43,29.25-.65,47.45-.65Zm0,274.3c57.2,0,97.39-5,120.58-14.99,23.18-9.99,34.77-39.33,34.77-87.99,0-37.8-4.01-67.36-12.02-88.64-8.02-21.29-23.4-33.45-46.15-36.5s-40.95-4.78-54.6-5.22c-13.65-.43-29.8-.65-48.43-.65h-13.65c-50.27,0-84.4,6.72-102.38,20.15-17.99,13.44-26.98,45.5-26.98,96.2s9.31,80.28,27.95,95.22c18.63,14.95,53.08,22.43,103.35,22.43h17.55Z"/>
    <path class="cls-1" d="m3808.78,712.62c9.96-29.46,26.65-48.1,50.05-55.9,23.4-7.8,54.6-11.7,93.6-11.7h5.85c32.06,0,58.83,1.74,80.28,5.2,21.45,3.47,39.86,11.27,55.25,23.4,15.38,12.14,25.13,25.79,29.25,40.95,4.11,15.17,6.17,34.02,6.17,56.55v183.95h-45.5v-179.4c0-38.13-10.19-62.72-30.55-73.77-20.37-11.05-52-16.58-94.9-16.58-48.97,0-86.12,5.53-111.47,16.58-25.35,11.05-38.02,38.02-38.02,80.92v172.25h-45.5v-305.5h45.5v63.05Z"/>
  </g>
</svg>