<?xml version="1.0" encoding="utf-8" ?>
<svg xmlns="http://www.w3.org/2000/svg" xmlns:xlink="http://www.w3.org/1999/xlink" width="2500" height="2500">
	<path fill="#FEFEFE" transform="scale(2.31481 2.31481)" d="M478.223 259.517C478.895 259.447 478.827 259.442 479.627 259.432C482 259.405 483.981 259.898 485.642 261.677C490.498 266.877 502.237 302.265 505.337 310.578C528.823 373.569 552.114 435.927 559.072 503.348C561.786 529.652 561.798 555.802 561.543 582.196C604.345 508.834 619.358 438.461 629.254 355.31L635.007 304.612C635.737 298.453 635.616 291.184 637.737 285.346C638.724 282.632 640.42 280.402 643.123 279.241C647.068 277.548 653.889 278.005 657.754 279.721C659.875 280.663 661.464 282.143 662.21 284.375C664.151 290.182 658.184 326.734 657.155 334.708C650.807 383.854 644.973 433.901 631.561 481.718C619.042 526.346 599.882 567.43 577.116 607.667C588.662 600.392 600.757 593.982 612.299 586.653Q623.586 579.589 634.449 571.89Q645.312 564.191 655.717 555.882Q666.121 547.573 676.033 538.682Q685.944 529.79 695.33 520.346C723.74 491.9 748.633 460.044 772.914 428.066L793.649 400.496C797.597 395.238 801.412 389.589 805.849 384.743C808.041 382.349 810.728 381.423 813.746 380.507C818.641 381.734 824.737 384.253 827.393 388.83C828.799 391.251 828.947 393.946 828.116 396.59C826.213 402.65 800.697 433.45 794.307 441.619C744.572 505.205 702.096 557.845 633.718 603.525C611.288 618.51 587.74 631.436 564.005 644.188C562.654 647.186 561.399 650.184 559.296 652.746C554.993 657.991 549.23 661.31 542.402 661.809Q541.815 661.858 541.226 661.877Q540.637 661.896 540.048 661.886Q539.459 661.876 538.872 661.837Q538.284 661.797 537.699 661.729Q537.114 661.66 536.533 661.562Q535.952 661.465 535.377 661.338Q534.802 661.212 534.233 661.056Q533.665 660.901 533.105 660.718Q532.545 660.535 531.995 660.324Q531.445 660.113 530.906 659.875Q530.368 659.637 529.841 659.373Q529.315 659.108 528.803 658.818Q528.29 658.527 527.793 658.211Q527.296 657.896 526.815 657.556Q526.333 657.216 525.87 656.852Q525.407 656.488 524.962 656.102C519.005 650.875 517.162 644.307 516.622 636.709C514.768 634.553 512.817 632.47 510.907 630.363C437.389 550.751 379.682 514.866 279.727 475.239C270.169 471.45 214.337 451.015 209.418 446.881C207.319 445.116 206.408 442.516 206.28 439.83C206.073 435.483 207.633 429.962 210.639 426.722C212.09 425.158 213.884 424.161 216.043 424.099C223.515 423.882 256.015 438.66 264.719 442.175C322.948 465.689 381.473 489.423 433.113 525.787C459.527 544.388 483.452 565.711 506.557 588.222C500.098 570.165 494.16 552.129 486.657 534.444C464.064 481.191 431.487 435.527 394.373 391.487Q379.269 373.636 363.814 356.089C357.361 348.759 338.223 329.195 334.925 321.466C333.838 318.918 333.91 316.334 335.058 313.818C336.867 309.851 341.873 305.221 346.077 303.93C348.097 303.309 349.961 303.579 351.776 304.637C358.678 308.659 382.195 338.481 388.84 346.317C415.906 378.237 443.255 410.302 466.693 445.036Q472.344 453.502 477.664 462.18Q482.984 470.858 487.965 479.735Q492.947 488.612 497.581 497.674Q502.216 506.737 506.497 515.972Q510.778 525.207 514.699 534.6Q518.62 543.993 522.176 553.531Q525.732 563.069 528.916 572.736Q532.101 582.404 534.91 592.188C536.149 575.753 536.208 558.996 535.795 542.528C533.988 470.587 517.473 413.36 492.211 346.688Q482.975 322.469 473.417 298.375C470.936 292.093 468.034 285.869 465.75 279.529C464.38 275.727 463.475 271.3 465.38 267.516C467.838 262.632 473.396 261.014 478.223 259.517Z"/>
	<path fill="#FEFEFE" transform="scale(2.31481 2.31481)" d="M137.513 584.941C145.252 584.435 163.872 590.726 172.016 592.915L215.637 604.64L404.111 655.146L475.673 674.316C487.515 677.483 499.747 680.177 511.415 683.877C518.474 686.116 522.208 693.191 529.092 695.996C536.683 699.09 549.509 698.8 556.163 693.734C560.324 690.567 562.95 686.685 568.001 684.591C573.105 682.475 578.921 681.334 584.256 679.919L611.609 672.625L708.484 646.667L864.324 604.92L914.553 591.483C921.846 589.53 929.298 586.98 936.661 585.415C940.174 584.669 943.795 584.697 947.132 586.144C951.348 587.973 953.195 590.839 954.835 594.974C957.589 601.915 965.892 632.91 966.72 639.829C967.06 642.673 967.217 645.524 965.964 648.173C963.82 652.704 960.299 654.857 955.723 656.509C925.483 664.122 895.41 672.623 865.286 680.692L688.375 728.085L615.593 747.606C602.516 751.121 588.996 755.735 575.625 757.724C563.682 759.5 550.605 758.516 538.526 758.498C528.431 758.483 517.743 759.159 507.719 758.055C498.112 756.997 488.669 753.869 479.356 751.359L439.872 740.782L296.37 702.332L169.314 668.291L137.984 659.907C132.727 658.497 126.367 657.509 121.543 655.055C118.135 653.322 115.853 650.811 114.729 647.136C113.915 644.473 113.888 641.714 114.262 638.974C115.119 632.704 124.42 597.343 127.072 592.412C129.457 587.979 132.827 586.305 137.513 584.941Z"/>
</svg>
