<?xml version="1.0" encoding="UTF-8"?>
<svg id="Layer_1" data-name="Layer 1" xmlns="http://www.w3.org/2000/svg" viewBox="0 0 4700 1167.82">
  <defs>
    <style>
      .cls-1 {
        fill: #f9fafb;
      }
    </style>
  </defs>
  <g>
    <path class="cls-1" d="m995.95,872.34c-.47,4.31,0,0,0,0-15.34-1.71-29-6.02-26.58-32.37,30.76-334.3-22.69-463.37-143.6-768.14-9.53-24.02,1.62-32.78,16.06-38.66-1.55-3.77,0,0,0,0,14.45-5.89,25.9-8.72,35.29,16.47,119.18,319.54,179.33,446.58,148.03,798.16-2.47,27.72-13.84,26.26-29.18,24.56h-.02Z"/>
    <path class="cls-1" d="m972.32,884.49c-2.43,3.59,0,0,0,0-12.76-8.69-22.85-18.87-8.38-41.05,183.37-281.19,196.42-420.28,231.9-746.26,2.79-25.7,16.74-28.24,32.26-26.69.4-4.07,0,0,0,0,15.52,1.55,26.98,4.4,23.52,31.05-43.9,338.21-50.08,478.62-242.01,774.86-15.12,23.34-24.51,16.76-37.27,8.07l-.02.02Z"/>
    <path class="cls-1" d="m963.92,870.05c-3.93,1.84,0,0,0,0-6.54-14-10.02-27.88,13.73-39.59,301.18-148.28,383.36-261.24,580.21-523.49,15.52-20.67,28.8-15.75,41.36-6.49,2.43-3.3,0,0,0,0,12.56,9.26,20.96,17.55,4.38,38.71-210.33,268.47-287.28,386.08-603.51,542.92-24.92,12.36-29.63,1.91-36.17-12.06Z"/>
    <path class="cls-1" d="m981.12,872.38c1.01,4.22,0,0,0,0-15.03,3.57-29.34,4.16-35.97-21.48-84.11-325-178.07-428.39-394.96-674.3-17.1-19.39-9.57-31.39,2.02-41.81-2.74-3.03,0,0,0,0,11.59-10.42,21.43-16.96,38.78,3.55,220.24,260.38,319.81,359.59,409.27,701.06,7.05,26.91-4.13,29.41-19.16,32.98h.02Z"/>
    <path class="cls-1" d="m987.64,859.71c2.85,3.26,0,0,0,0-11.66,10.13-24.08,17.28-41.83-2.36-225.16-249.02-356.29-297.09-662.46-414.5-24.13-9.26-23.03-23.39-17.57-37.99-3.84-1.42,0,0,0,0,5.46-14.6,11.12-24.96,36.01-14.83,315.83,128.69,450.04,170.45,687.53,431.58,18.71,20.58,9.95,27.97-1.71,38.1h.02Z"/>
    <circle class="cls-1" cx="987.68" cy="850.07" r="51.38"/>
    <path class="cls-1" d="m1911.26,850.7l-24.8-92.49c-4.49-16.78-21.75-26.76-38.51-22.24l-798.28,213.89c-6.48,1.74-12.33,5.46-16.28,10.88-8.39,11.5-25.86,19.4-46.05,19.4s-37.66-7.91-46.05-19.4c-3.95-5.42-9.8-9.14-16.28-10.88L126.72,735.97c-16.76-4.52-34.01,5.46-38.51,22.24l-24.8,92.49c-4.49,16.78,5.48,34.04,22.24,38.53l808.2,216.55c12.43,3.33,25.23,5.02,38.1,5.02h110.78c12.86,0,25.67-1.69,38.1-5.02l808.2-216.55c16.76-4.49,26.73-21.75,22.24-38.53Z"/>
  </g>
  <g>
    <path class="cls-1" d="m2282.95,790.41c8.75,1.64,22.71,3.28,41.87,4.93,19.15,1.64,41.87,2.46,68.15,2.46h31.2c28.45,0,50.9-.82,67.32-2.46,16.42-1.64,31.2-5.34,44.34-11.08,13.14-5.75,22.71-13.27,28.74-22.58,6.02-9.3,9.57-20.8,10.67-34.48h60.76c0,50.9-20.4,83.89-61.17,98.93-40.78,15.06-93.47,22.58-158.05,22.58-70.61,0-122.88-3.16-156.82-9.44-33.94-6.29-61.72-23.26-83.33-50.9-21.63-27.63-32.43-73.48-32.43-137.52,0-79.36,15.16-132.6,45.49-159.69,30.33-27.09,85.37-40.64,165.17-40.64h39.33c61.74,0,108.32,3.44,139.75,10.3,31.42,6.88,56.28,23.77,74.58,50.7,18.31,26.93,27.47,69.79,27.47,128.58v19.78h-434.32c0,37.77,5.2,67.2,15.6,88.26,10.39,21.08,32.29,35.18,65.68,42.28Zm133.83-289h-45.16c-31.75,0-59.94,1.8-84.57,5.38-24.63,3.59-43.1,10.62-55.42,21.1s-20.4,22.48-24.22,35.98c-3.84,13.51-5.75,29.08-5.75,46.73h373.57c0-17.09-1.64-32.25-4.93-45.49s-9.85-24.4-19.7-33.51c-9.85-9.1-25.32-16.41-46.39-21.92-21.08-5.52-50.22-8.27-87.44-8.27Z"/>
    <path class="cls-1" d="m3246,842.96h-57.47v-59.11c-11.49,27.38-29.97,45.16-55.42,53.37-25.45,8.21-57.34,12.32-95.65,12.32h-53.37c-89.22,0-151.07-11.1-185.55-33.32-34.48-22.22-51.72-75.83-51.72-160.84,0-80.08,14.37-133.97,43.1-161.67s83.05-41.55,162.97-41.55h45.16c44.33,0,74.84.77,91.54,2.28,16.69,1.53,31.33,4.69,43.93,9.52,12.58,4.82,23.26,11.55,32.02,20.17,8.75,8.62,16.42,18.77,22.99,30.43v-224.14h57.47v552.55Zm-248.36-44.33c73.49,0,123.68-8.1,150.57-24.29,26.88-16.19,40.32-56.95,40.32-122.27,0-45-5.63-78.47-16.87-100.44-11.25-21.96-30.58-35-58.01-39.11-27.43-4.11-51.43-6.71-71.99-7.81-20.58-1.1-40.46-1.65-59.65-1.65-69.66,0-116.01,8.23-139.05,24.71-23.04,16.47-34.56,59.55-34.56,129.26,0,49.95,7.54,85.63,22.63,107.03,15.09,21.41,46.21,32.11,93.39,32.11l73.22,2.46Z"/>
    <path class="cls-1" d="m3434.83,362.66h-57.47v-72.25h57.47v72.25Zm0,480.3h-57.47v-385.88h57.47v385.88Z"/>
    <path class="cls-1" d="m3804.29,452.15c65.68,0,114.94,3.28,147.78,9.85,32.84,6.57,59.24,23.27,79.23,50.08,19.97,26.83,29.97,70.34,29.97,130.54,0,91.42-17.52,148.6-52.55,171.59-35.03,22.99-103.45,34.48-205.26,34.48-90.31,0-154.35-11.21-192.12-33.66-37.77-22.44-56.65-76.07-56.65-160.92,0-60.2,8.75-106.32,26.27-138.34,17.51-32.02,44.87-50.35,82.1-55.01,37.22-4.64,64.31-7.25,81.28-7.8,16.96-.54,36.95-.82,59.94-.82Zm0,346.47c72.25,0,123.01-6.31,152.3-18.94,29.27-12.62,43.92-49.67,43.92-111.15,0-47.75-5.07-85.08-15.19-111.97-10.13-26.89-29.56-42.26-58.29-46.1s-51.72-6.04-68.97-6.59c-17.24-.54-37.64-.82-61.17-.82h-17.24c-63.5,0-106.61,8.49-129.31,25.45-22.72,16.97-34.07,57.47-34.07,121.51s11.76,101.4,35.3,120.28c23.53,18.88,67.04,28.33,130.54,28.33h22.17Z"/>
    <path class="cls-1" d="m4239.43,536.72c12.58-37.22,33.66-60.76,63.22-70.61,29.56-9.85,68.97-14.78,118.23-14.78h7.39c40.5,0,74.3,2.19,101.4,6.57,27.09,4.39,50.35,14.24,69.79,29.56,19.42,15.33,31.74,32.57,36.95,51.72,5.2,19.17,7.8,42.98,7.8,71.43v232.35h-57.47v-226.6c0-48.16-12.87-79.23-38.59-93.19-25.73-13.96-65.68-20.94-119.87-20.94-61.86,0-108.79,6.98-140.81,20.94-32.02,13.96-48.03,48.03-48.03,102.22v217.57h-57.47v-385.88h57.47v79.64Z"/>
  </g>
</svg>