<?xml version="1.0" encoding="UTF-8"?>
<svg id="Layer_1" data-name="Layer 1" xmlns="http://www.w3.org/2000/svg" viewBox="0 0 4063.65 1167.82">
  <defs>
    <style>
      .cls-1 {
        fill: #f9fafb;
      }
    </style>
  </defs>
  <g>
    <path class="cls-1" d="m926.49,838.28c-.42,3.86,0,0,0,0-13.71-1.53-25.92-5.38-23.75-28.93,27.49-298.78-20.28-414.14-128.35-686.54-8.51-21.47,1.45-29.3,14.36-34.56-1.39-3.37,0,0,0,0,12.91-5.26,23.15-7.79,31.55,14.72,106.52,285.59,160.28,399.14,132.3,713.37-2.21,24.78-12.37,23.47-26.08,21.95h-.02Z"/>
    <path class="cls-1" d="m905.37,849.14c-2.17,3.21,0,0,0,0-11.41-7.77-20.42-16.87-7.49-36.69,163.89-251.32,175.56-375.63,207.26-666.98,2.49-22.97,14.96-25.24,28.83-23.85.36-3.63,0,0,0,0,13.87,1.39,24.12,3.94,21.02,27.75-39.24,302.28-44.76,427.78-216.3,692.54-13.51,20.86-21.91,14.98-33.31,7.21l-.02.02Z"/>
    <path class="cls-1" d="m897.86,836.23c-3.51,1.65,0,0,0,0-5.84-12.51-8.96-24.92,12.27-35.38,269.19-132.53,342.64-233.49,518.58-467.87,13.87-18.47,25.74-14.08,36.97-5.8,2.17-2.95,0,0,0,0,11.22,8.27,18.73,15.68,3.92,34.6-187.99,239.95-256.76,345.07-539.4,485.24-22.27,11.04-26.48,1.71-32.33-10.78Z"/>
    <path class="cls-1" d="m913.24,838.32c.9,3.77,0,0,0,0-13.43,3.19-26.22,3.71-32.15-19.2-75.18-290.47-159.15-382.88-353-602.67-15.28-17.33-8.55-28.05,1.81-37.37-2.45-2.71,0,0,0,0,10.36-9.32,19.16-15.16,34.66,3.17,196.84,232.72,285.83,321.39,365.79,626.58,6.31,24.06-3.69,26.28-17.13,29.48h.02Z"/>
    <path class="cls-1" d="m919.06,827c2.55,2.91,0,0,0,0-10.42,9.06-21.53,15.44-37.39-2.11-201.24-222.56-318.44-265.53-592.09-370.47-21.57-8.27-20.58-20.9-15.7-33.95-3.43-1.27,0,0,0,0,4.88-13.05,9.94-22.31,32.19-13.25,282.28,115.02,402.23,152.34,614.5,385.73,16.73,18.39,8.9,25-1.53,34.06h.02Z"/>
    <circle class="cls-1" cx="919.1" cy="818.38" r="45.92"/>
    <path class="cls-1" d="m1744.57,818.94l-22.17-82.67c-4.02-15-19.44-23.91-34.42-19.88l-713.47,191.17c-5.79,1.55-11.02,4.88-14.55,9.72-7.5,10.27-23.11,17.34-41.16,17.34s-33.66-7.07-41.16-17.34c-3.53-4.84-8.76-8.17-14.55-9.72l-713.47-191.17c-14.98-4.04-30.4,4.88-34.42,19.88l-22.17,82.67c-4.02,15,4.9,30.42,19.88,34.44l722.34,193.54c11.11,2.98,22.55,4.48,34.05,4.48h99.01c11.5,0,22.94-1.51,34.05-4.48l722.34-193.54c14.98-4.02,23.89-19.44,19.88-34.44Z"/>
  </g>
  <g>
    <path class="cls-1" d="m2094.69,742.56c6.93,1.3,17.98,2.6,33.15,3.9,15.16,1.3,33.15,1.95,53.95,1.95h24.7c22.53,0,40.3-.65,53.3-1.95s24.7-4.22,35.1-8.77c10.4-4.55,17.98-10.5,22.75-17.88,4.76-7.36,7.58-16.46,8.45-27.3h48.1c0,40.3-16.15,66.41-48.42,78.33-32.29,11.92-74,17.88-125.12,17.88-55.9,0-97.29-2.5-124.15-7.47-26.87-4.98-48.86-18.41-65.97-40.3-17.12-21.88-25.68-58.18-25.68-108.88,0-62.83,12-104.98,36.01-126.43,24.01-21.45,67.59-32.17,130.76-32.17h31.14c48.88,0,85.76,2.72,110.64,8.16,24.87,5.44,44.56,18.82,59.05,40.14,14.49,21.32,21.74,55.25,21.74,101.8v15.66h-343.85c0,29.9,4.11,53.2,12.35,69.88,8.23,16.69,25.56,27.85,52,33.48Zm105.95-228.8h-35.75c-25.14,0-47.45,1.42-66.95,4.26-19.5,2.84-34.12,8.41-43.88,16.71s-16.15,17.79-19.17,28.49c-3.04,10.69-4.55,23.02-4.55,37h295.75c0-13.53-1.3-25.53-3.9-36.01s-7.8-19.32-15.6-26.53c-7.8-7.2-20.05-12.99-36.73-17.36-16.69-4.37-39.76-6.55-69.22-6.55Z"/>
    <path class="cls-1" d="m2857.13,784.16h-45.5v-46.8c-9.1,21.67-23.73,35.75-43.88,42.25s-45.4,9.75-75.73,9.75h-42.25c-70.64,0-119.6-8.79-146.9-26.38s-40.95-60.03-40.95-127.34c0-63.4,11.38-106.06,34.12-127.99s65.75-32.9,129.03-32.9h35.75c35.1,0,59.25.61,72.47,1.81,13.21,1.21,24.8,3.72,34.78,7.54,9.96,3.82,18.41,9.14,25.35,15.97,6.93,6.83,13,14.86,18.2,24.09v-177.45h45.5v437.45Zm-196.62-35.1c58.19,0,97.92-6.41,119.2-19.23,21.28-12.82,31.92-45.08,31.92-96.8,0-35.63-4.46-62.13-13.36-79.51-8.91-17.39-24.21-27.71-45.93-30.97-21.71-3.25-40.72-5.31-57-6.19-16.29-.87-32.03-1.31-47.23-1.31-55.15,0-91.84,6.52-110.08,19.56-18.24,13.04-27.36,47.15-27.36,102.33,0,39.55,5.97,67.79,17.92,84.73,11.94,16.95,36.58,25.42,73.94,25.42l57.97,1.95Z"/>
    <path class="cls-1" d="m3006.62,403.91h-45.5v-57.2h45.5v57.2Zm0,380.25h-45.5v-305.5h45.5v305.5Z"/>
    <path class="cls-1" d="m3299.12,474.76c52,0,91,2.6,117,7.8,26,5.2,46.9,18.42,62.72,39.65,15.81,21.24,23.73,55.69,23.73,103.35,0,72.37-13.87,117.65-41.6,135.85-27.74,18.2-81.9,27.3-162.5,27.3-71.5,0-122.2-8.88-152.1-26.65-29.9-17.76-44.85-60.23-44.85-127.4,0-47.66,6.93-84.17,20.8-109.53,13.86-25.35,35.53-39.86,65-43.55,29.46-3.68,50.91-5.74,64.35-6.17,13.43-.43,29.25-.65,47.45-.65Zm0,274.3c57.2,0,97.39-5,120.58-14.99,23.18-9.99,34.77-39.33,34.77-87.99,0-37.8-4.01-67.36-12.02-88.64-8.02-21.29-23.4-33.45-46.15-36.5s-40.95-4.78-54.6-5.22c-13.65-.43-29.8-.65-48.43-.65h-13.65c-50.27,0-84.4,6.72-102.38,20.15-17.99,13.44-26.98,45.5-26.98,96.2s9.31,80.28,27.95,95.22c18.63,14.95,53.08,22.43,103.35,22.43h17.55Z"/>
    <path class="cls-1" d="m3643.62,541.71c9.96-29.46,26.65-48.1,50.05-55.9,23.4-7.8,54.6-11.7,93.6-11.7h5.85c32.06,0,58.83,1.74,80.28,5.2,21.45,3.47,39.86,11.27,55.25,23.4,15.38,12.14,25.13,25.79,29.25,40.95,4.11,15.17,6.17,34.02,6.17,56.55v183.95h-45.5v-179.4c0-38.13-10.19-62.72-30.55-73.77-20.37-11.05-52-16.58-94.9-16.58-48.97,0-86.12,5.53-111.47,16.58-25.35,11.05-38.02,38.02-38.02,80.92v172.25h-45.5v-305.5h45.5v63.05Z"/>
  </g>
</svg>