<?xml version="1.0" encoding="UTF-8"?>
<svg id="Layer_1" data-name="Layer 1" xmlns="http://www.w3.org/2000/svg" viewBox="0 0 2500 2500">
  <defs>
    <style>
      .cls-1 {
        fill: #f9fafb;
      }
    </style>
  </defs>
  <g>
    <path class="cls-1" d="m1260.24,1207.05c-.56,5.13,0,0,0,0-18.25-2.03-34.49-7.16-31.61-38.5,36.57-397.54-26.98-551.03-170.77-913.47-11.33-28.56,1.92-38.98,19.1-45.98-1.84-4.49,0,0,0,0,17.18-7,30.8-10.37,41.97,19.58,141.73,379.99,213.25,531.07,176.04,949.16-2.94,32.97-16.46,31.23-34.7,29.2h-.03Z"/>
    <path class="cls-1" d="m1232.14,1221.5c-2.89,4.27,0,0,0,0-15.17-10.34-27.17-22.44-9.97-48.81,218.06-334.38,233.58-499.79,275.77-887.44,3.31-30.56,19.9-33.58,38.36-31.74.48-4.84,0,0,0,0,18.46,1.84,32.09,5.24,27.97,36.92-52.2,402.19-59.55,569.17-287.79,921.45-17.98,27.76-29.15,19.93-44.32,9.59l-.03.03Z"/>
    <path class="cls-1" d="m1222.15,1204.32c-4.68,2.19,0,0,0,0-7.77-16.64-11.92-33.16,16.32-47.07,358.16-176.33,455.89-310.66,689.98-622.52,18.46-24.58,34.25-18.73,49.19-7.72,2.89-3.93,0,0,0,0,14.93,11.01,24.93,20.87,5.21,46.03-250.12,319.26-341.62,459.12-717.69,645.63-29.63,14.69-35.24,2.27-43.01-14.35Z"/>
    <path class="cls-1" d="m1242.61,1207.1c1.2,5.02,0,0,0,0-17.87,4.25-34.89,4.94-42.77-25.54-100.03-386.48-211.76-509.43-469.68-801.87-20.33-23.06-11.38-37.32,2.4-49.72-3.26-3.61,0,0,0,0,13.79-12.4,25.49-20.17,46.11,4.22,261.9,309.65,380.31,427.63,486.7,833.69,8.39,32.01-4.92,34.97-22.79,39.22h.03Z"/>
    <path class="cls-1" d="m1250.36,1192.04c3.39,3.87,0,0,0,0-13.87,12.05-28.64,20.55-49.75-2.81-267.75-296.13-423.7-353.3-787.79-492.92-28.69-11.01-27.38-27.81-20.89-45.18-4.57-1.68,0,0,0,0,6.49-17.37,13.22-29.68,42.83-17.63,375.58,153.03,535.19,202.7,817.61,513.23,22.25,24.47,11.84,33.26-2.03,45.31h.03Z"/>
    <circle class="cls-1" cx="1250.41" cy="1180.57" r="61.1"/>
    <path class="cls-1" d="m2348.72,1181.32l-29.5-109.99c-5.34-19.96-25.86-31.82-45.79-26.45l-949.3,254.35c-7.7,2.06-14.66,6.49-19.36,12.94-9.98,13.67-30.75,23.07-54.77,23.07s-44.78-9.4-54.77-23.07c-4.7-6.44-11.66-10.87-19.36-12.94l-949.3-254.35c-19.93-5.37-40.45,6.49-45.79,26.45l-29.5,109.99c-5.34,19.96,6.52,40.48,26.45,45.82l961.1,257.51c14.78,3.96,30.01,5.96,45.3,5.96h131.74c15.3,0,30.53-2.01,45.3-5.96l961.1-257.51c19.93-5.34,31.79-25.86,26.45-45.82Z"/>
  </g>
  <g>
    <path class="cls-1" d="m365.69,2204.62c6.93,1.3,17.98,2.6,33.15,3.9,15.16,1.3,33.15,1.95,53.95,1.95h24.7c22.53,0,40.3-.65,53.3-1.95s24.7-4.22,35.1-8.77c10.4-4.55,17.98-10.5,22.75-17.88,4.76-7.36,7.58-16.46,8.45-27.3h48.1c0,40.3-16.15,66.41-48.42,78.33-32.29,11.92-74,17.88-125.12,17.88-55.9,0-97.29-2.5-124.15-7.47-26.87-4.98-48.86-18.41-65.97-40.3-17.12-21.88-25.68-58.18-25.68-108.88,0-62.83,12-104.98,36.01-126.43,24.01-21.45,67.59-32.17,130.76-32.17h31.14c48.88,0,85.76,2.72,110.64,8.16,24.87,5.44,44.56,18.82,59.05,40.14,14.49,21.32,21.74,55.25,21.74,101.8v15.66h-343.85c0,29.9,4.11,53.2,12.35,69.88,8.23,16.69,25.56,27.85,52,33.48Zm105.95-228.8h-35.75c-25.14,0-47.45,1.42-66.95,4.26-19.5,2.84-34.12,8.41-43.88,16.71s-16.15,17.79-19.17,28.49c-3.04,10.69-4.55,23.02-4.55,37h295.75c0-13.53-1.3-25.53-3.9-36.01s-7.8-19.32-15.6-26.53c-7.8-7.2-20.05-12.99-36.73-17.36-16.69-4.37-39.76-6.55-69.22-6.55Z"/>
    <path class="cls-1" d="m1128.13,2246.21h-45.5v-46.8c-9.1,21.67-23.73,35.75-43.88,42.25s-45.4,9.75-75.73,9.75h-42.25c-70.64,0-119.6-8.79-146.9-26.38s-40.95-60.03-40.95-127.34c0-63.4,11.38-106.06,34.12-127.99s65.75-32.9,129.03-32.9h35.75c35.1,0,59.25.61,72.47,1.81,13.21,1.21,24.8,3.72,34.78,7.54,9.96,3.82,18.41,9.14,25.35,15.97,6.93,6.83,13,14.86,18.2,24.09v-177.45h45.5v437.45Zm-196.62-35.1c58.19,0,97.92-6.41,119.2-19.23,21.28-12.82,31.92-45.08,31.92-96.8,0-35.63-4.46-62.13-13.36-79.51-8.91-17.39-24.21-27.71-45.93-30.97-21.71-3.25-40.72-5.31-57-6.19-16.29-.87-32.03-1.31-47.23-1.31-55.15,0-91.84,6.52-110.08,19.56-18.24,13.04-27.36,47.15-27.36,102.33,0,39.55,5.97,67.79,17.92,84.73,11.94,16.95,36.58,25.42,73.94,25.42l57.97,1.95Z"/>
    <path class="cls-1" d="m1277.62,1865.96h-45.5v-57.2h45.5v57.2Zm0,380.25h-45.5v-305.5h45.5v305.5Z"/>
    <path class="cls-1" d="m1570.12,1936.81c52,0,91,2.6,117,7.8,26,5.2,46.9,18.42,62.72,39.65,15.81,21.24,23.73,55.69,23.73,103.35,0,72.37-13.87,117.65-41.6,135.85-27.74,18.2-81.9,27.3-162.5,27.3-71.5,0-122.2-8.88-152.1-26.65-29.9-17.76-44.85-60.23-44.85-127.4,0-47.66,6.93-84.17,20.8-109.53,13.86-25.35,35.53-39.86,65-43.55,29.46-3.68,50.91-5.74,64.35-6.17,13.43-.43,29.25-.65,47.45-.65Zm0,274.3c57.2,0,97.39-5,120.58-14.99,23.18-9.99,34.77-39.33,34.77-87.99,0-37.8-4.01-67.36-12.02-88.64-8.02-21.29-23.4-33.45-46.15-36.5s-40.95-4.78-54.6-5.22c-13.65-.43-29.8-.65-48.43-.65h-13.65c-50.27,0-84.4,6.72-102.38,20.15-17.99,13.44-26.98,45.5-26.98,96.2s9.31,80.28,27.95,95.22c18.63,14.95,53.08,22.43,103.35,22.43h17.55Z"/>
    <path class="cls-1" d="m1914.62,2003.76c9.96-29.46,26.65-48.1,50.05-55.9,23.4-7.8,54.6-11.7,93.6-11.7h5.85c32.06,0,58.83,1.74,80.28,5.2,21.45,3.47,39.86,11.27,55.25,23.4,15.38,12.14,25.13,25.79,29.25,40.95,4.11,15.17,6.17,34.02,6.17,56.55v183.95h-45.5v-179.4c0-38.13-10.19-62.72-30.55-73.77-20.37-11.05-52-16.58-94.9-16.58-48.97,0-86.12,5.53-111.47,16.58-25.35,11.05-38.02,38.02-38.02,80.92v172.25h-45.5v-305.5h45.5v63.05Z"/>
  </g>
</svg>